<svg width="115.34" height="172.53" version="1.1" viewBox="0 0 30.516 45.648" xmlns="http://www.w3.org/2000/svg">
 <path d="m5.1699 0.12237h20.176c2.7947 0 5.044 2.2493 5.044 5.044v35.31c0 2.7944-2.2493 5.044-5.044 5.044h-20.176c-2.7945 0-5.044-2.2497-5.044-5.044v-35.31c0-2.7947 2.2495-5.044 5.044-5.044z" fill="#fff" fill-rule="evenodd" stroke-width=".35278"/>
 <path d="m5.1699 0.12237h20.176c2.7947 0 5.044 2.2493 5.044 5.044v35.31c0 2.7944-2.2493 5.044-5.044 5.044h-20.176c-2.7945 0-5.044-2.2497-5.044-5.044v-35.31c0-2.7947 2.2495-5.044 5.044-5.044z" fill="none" stroke="#000" stroke-width=".2522"/>
 <path d="m5.1699 2.6447h20.176c1.397 0 2.522 1.125 2.522 2.522v35.31c0 1.397-1.125 2.522-2.522 2.522h-20.176c-1.397 0-2.522-1.125-2.522-2.522v-35.31c0-1.397 1.1249-2.522 2.522-2.522z" fill-rule="evenodd" stroke-width=".35278"/>
 <path d="m22.825 10.208c-11.143 0-20.176 9.0333-20.176 20.176 0 2.7859 2.2579 5.044 5.044 5.044 11.143 0 20.176-9.0336 20.176-20.176 0-2.7859-2.2581-5.044-5.044-5.044z" fill="#f00" fill-rule="evenodd" stroke-width=".35278"/>
 <g>
  <path d="m4.0624 22.187 1.632-0.49606 1.1532 3.7939q0.23837 0.78422 0.59579 1.046 0.36037 0.25629 0.94112 0.07976 0.58499-0.17781 0.73754-0.59 0.1555-0.41772-0.082866-1.2019l-1.1532-3.7939 1.632-0.49606 1.1532 3.7939q0.40845 1.3438-0.06584 2.2057-0.47429 0.86192-1.8562 1.282-1.3777 0.41876-2.2514-0.03343-0.87372-0.45218-1.2822-1.796z"/>
  <path d="m11.116 20.043 1.8228-0.55405 3.6212 3.6411-1.3194-4.3408 1.5472-0.4703 1.9237 6.3289-1.8228 0.55405-3.6212-3.6411 1.3194 4.3408-1.5472 0.4703z"/>
  <path d="m21.606 18.021q-0.74607 0.22677-0.98975 0.90283-0.24368 0.67606 0.0604 1.6765 0.30279 0.99617 0.88148 1.4223 0.57869 0.42609 1.3248 0.19932 0.75031-0.22806 0.99399-0.90412 0.24368-0.67606-0.05911-1.6722-0.30408-1.0004-0.88277-1.4265-0.57869-0.42609-1.329-0.19803zm-0.35949-1.1827q1.5261-0.46385 2.6562 0.14654t1.5979 2.1492q0.46643 1.5345-0.1329 2.6706-0.59933 1.1361-2.1254 1.5999-1.5218 0.46256-2.6562-0.14654-1.1302-0.61039-1.5966-2.1449-0.46772-1.5388 0.13162-2.6749 0.60357-1.1374 2.1254-1.5999z"/>
 </g>
 <g fill="#ff0">
  <path d="m4.3934 21.151 1.632-0.49606 1.1532 3.7939q0.23837 0.78422 0.59579 1.046 0.36037 0.25628 0.94112 0.07976 0.58499-0.17781 0.73754-0.59 0.1555-0.41772-0.082867-1.2019l-1.1532-3.7939 1.632-0.49606 1.1532 3.7939q0.40845 1.3438-0.06584 2.2057-0.47429 0.86192-1.8562 1.282-1.3777 0.41876-2.2514-0.03342-0.87372-0.45218-1.2822-1.796z"/>
  <path d="m11.447 19.007 1.8228-0.55405 3.6212 3.6411-1.3194-4.3408 1.5472-0.4703 1.9237 6.3289-1.8228 0.55405-3.6212-3.6411 1.3194 4.3408-1.5472 0.4703z"/>
  <path d="m21.937 16.985q-0.74607 0.22677-0.98975 0.90283-0.24368 0.67606 0.0604 1.6765 0.30279 0.99617 0.88148 1.4223 0.57869 0.42609 1.3248 0.19932 0.75031-0.22806 0.99399-0.90412 0.24368-0.67606-0.05911-1.6722-0.30408-1.0004-0.88277-1.4265-0.57869-0.42609-1.329-0.19803zm-0.35949-1.1827q1.526-0.46385 2.6562 0.14654 1.1302 0.61039 1.5979 2.1492 0.46643 1.5345-0.1329 2.6706-0.59934 1.1361-2.1254 1.5999-1.5218 0.46256-2.6562-0.14654-1.1302-0.61039-1.5966-2.1449-0.46772-1.5388 0.13162-2.6749 0.60358-1.1374 2.1254-1.5999z"/>
 </g>
</svg>
